<?xml version="1.0" standalone="no"?>
<!DOCTYPE svg PUBLIC "-//W3C//DTD SVG 20010904//EN"
 "http://www.w3.org/TR/2001/REC-SVG-20010904/DTD/svg10.dtd">
<svg version="1.0" xmlns="http://www.w3.org/2000/svg"
 width="462.000000pt" height="129.000000pt" viewBox="0 0 462.000000 129.000000"
 preserveAspectRatio="xMidYMid meet">
<metadata>
Created by potrace 1.16, written by Peter Selinger 2001-2019
</metadata>
<g transform="translate(0.000000,129.000000) scale(0.100000,-0.100000)"
fill="#000000" stroke="none">
<path d="M321 1118 c-95 -27 -143 -117 -110 -205 17 -45 59 -82 141 -124 99
-50 121 -86 78 -129 -27 -27 -102 -27 -177 0 -32 11 -59 20 -60 20 -2 0 -3
-23 -3 -51 0 -47 2 -51 33 -64 18 -7 60 -17 93 -20 160 -18 272 81 235 206
-15 50 -49 82 -134 125 -80 41 -107 65 -107 98 0 52 71 70 163 42 l46 -14 16
41 c9 22 12 44 8 48 -12 12 -123 39 -158 38 -16 0 -45 -5 -64 -11z"/>
<path d="M730 835 l0 -285 55 0 55 0 0 285 0 285 -55 0 -55 0 0 -285z"/>
<path d="M1055 1107 c-3 -7 -4 -134 -3 -282 l3 -270 52 -3 c48 -3 53 -1 58 21
4 14 5 63 3 111 l-3 86 98 0 97 0 0 50 0 50 -97 0 -98 0 0 75 0 75 103 0 102
0 0 50 0 50 -155 0 c-116 0 -157 -3 -160 -13z"/>
<path d="M1675 1103 c-4 -10 -35 -99 -70 -198 -35 -99 -77 -218 -94 -265 -17
-47 -31 -86 -31 -88 0 -2 28 -2 61 0 l62 3 20 68 20 67 108 0 108 0 21 -70 21
-70 59 0 c33 0 60 1 60 3 0 3 -185 525 -195 550 -6 14 -20 17 -75 17 -55 0
-69 -3 -75 -17z m155 -310 c0 -2 -34 -3 -75 -3 -48 0 -75 4 -75 11 0 13 60
210 68 224 4 6 80 -209 82 -232z"/>
<path d="M2160 835 l0 -286 53 3 52 3 -2 220 c-1 125 1 213 6 205 5 -8 37
-108 72 -222 l64 -208 52 0 52 0 73 220 c40 121 75 220 78 220 3 0 3 -99 2
-220 l-4 -220 56 0 56 0 0 285 0 286 -82 -3 -82 -3 -69 -212 c-37 -117 -72
-213 -75 -213 -4 0 -37 96 -73 213 l-65 212 -82 3 -82 3 0 -286z"/>
<path d="M3099 1093 c-18 -45 -189 -534 -189 -539 0 -2 27 -4 60 -4 l59 0 22
70 21 70 108 0 107 0 19 -67 20 -68 62 -3 c34 -2 62 -2 62 0 0 4 -184 523
-195 551 -6 14 -20 17 -76 17 -67 0 -70 -1 -80 -27z m122 -188 l36 -115 -77 0
-77 0 36 115 c19 63 38 115 41 115 3 0 22 -52 41 -115z"/>
<path d="M3590 835 l0 -285 55 0 55 0 0 110 0 110 38 0 c36 0 38 -2 103 -108
l67 -107 61 -3 c33 -2 61 0 61 3 0 3 -32 53 -70 111 -39 57 -73 111 -76 119
-3 8 11 29 35 50 73 66 78 160 12 226 -45 45 -102 59 -241 59 l-100 0 0 -285z
m244 164 c19 -15 26 -30 26 -53 0 -48 -29 -69 -100 -74 l-60 -4 0 76 0 76 54
0 c39 0 60 -6 80 -21z"/>
<path d="M4120 1070 l0 -50 78 0 77 0 -3 -235 -3 -235 61 0 60 0 0 235 0 235
75 0 75 0 0 50 0 50 -210 0 -210 0 0 -50z"/>
<path d="M250 410 c0 -20 7 -20 865 -20 858 0 865 0 865 20 0 20 -7 20 -865
20 -858 0 -865 0 -865 -20z"/>
</g>
</svg>
